<?xml version="1.0" standalone="no"?>
<!DOCTYPE svg PUBLIC "-//W3C//DTD SVG 20010904//EN"
 "http://www.w3.org/TR/2001/REC-SVG-20010904/DTD/svg10.dtd">
<svg version="1.0" xmlns="http://www.w3.org/2000/svg"
 width="703.000000pt" height="703.000000pt" viewBox="0 0 703.000000 703.000000"
 preserveAspectRatio="xMidYMid meet">

<g transform="translate(0.000000,703.000000) scale(0.100000,-0.100000)"
fill="#000000" stroke="none">
<path d="M0 5365 l0 -1665 23 0 c45 0 90 20 132 59 83 76 127 66 184 -43 59
-114 79 -114 148 0 101 167 200 152 267 -41 60 -175 64 -173 157 74 39 104 78
150 134 158 83 11 133 -71 196 -314 22 -86 44 -164 50 -175 28 -53 52 10 109
292 22 113 48 228 56 257 28 98 81 131 123 78 34 -44 74 -264 127 -695 15
-124 30 -229 34 -233 8 -10 39 179 80 488 64 485 103 689 137 727 20 23 50 23
62 1 17 -33 35 -256 76 -943 26 -435 37 -584 46 -600 7 -13 8 -13 9 0 0 8 5
65 10 125 5 61 19 310 30 555 29 658 47 879 70 865 4 -2 10 55 14 128 13 258
45 506 68 534 15 19 46 16 57 -5 19 -35 32 -189 34 -397 3 -344 -14 -1540 -24
-1673 -33 -447 -57 214 -41 1148 5 327 7 624 3 660 l-7 65 -7 -85 c-5 -47 -12
-143 -17 -215 -5 -71 -14 -146 -19 -165 -24 -85 -40 -285 -66 -855 -33 -712
-55 -862 -123 -841 -46 15 -58 84 -82 486 -27 435 -70 1053 -74 1058 -9 8 -55
-280 -96 -598 -64 -494 -94 -625 -142 -618 -42 6 -56 58 -93 353 -55 436 -97
677 -115 659 -5 -5 -30 -106 -55 -224 -26 -118 -56 -250 -67 -293 -24 -91 -56
-137 -97 -137 -53 0 -84 55 -122 220 -39 170 -83 281 -119 300 -18 9 -25 7
-48 -18 -15 -16 -38 -58 -51 -93 -61 -161 -86 -213 -116 -242 -18 -18 -43 -52
-55 -77 -27 -53 -38 -40 -15 17 15 36 15 39 -3 53 -31 26 -51 63 -82 155 -16
49 -37 97 -46 107 -36 39 -76 12 -123 -80 -38 -75 -63 -97 -111 -97 -54 0 -89
29 -130 108 -19 37 -39 67 -43 67 -5 0 -29 -17 -53 -39 -44 -39 -104 -61 -163
-61 l-31 0 0 -1820 0 -1820 3515 0 3515 0 0 1805 0 1805 -89 0 c-105 0 -133
-9 -182 -56 -31 -30 -42 -35 -75 -32 -31 2 -43 9 -59 36 -73 119 -79 127 -110
127 -27 0 -33 -6 -61 -64 -41 -85 -81 -121 -136 -121 -61 0 -105 50 -141 160
-15 47 -31 91 -36 99 -16 25 -37 4 -61 -61 -64 -176 -83 -218 -114 -254 -29
-33 -39 -39 -74 -39 -82 0 -119 62 -196 332 -28 97 -56 178 -63 180 -7 3 -19
-11 -27 -30 -19 -47 -90 -362 -116 -515 -61 -364 -194 -655 -426 -931 -216
-258 -515 -459 -849 -570 -124 -41 -319 -86 -340 -77 -11 4 -42 153 -33 161 2
2 60 15 129 29 473 96 891 374 1146 763 313 479 347 1110 86 1615 -214 415
-566 722 -1005 876 -95 34 -285 77 -388 88 -99 10 -64 -7 47 -23 239 -35 453
-109 651 -225 444 -262 766 -724 836 -1201 18 -121 21 -351 5 -464 -98 -707
-668 -1280 -1411 -1418 -54 -10 -99 -17 -102 -14 -2 2 -6 21 -10 42 -8 43 -16
39 114 62 563 102 1073 537 1244 1060 87 268 102 472 56 750 -106 631 -646
1174 -1298 1304 -148 30 -192 35 -192 22 0 -6 14 -11 31 -11 56 0 232 -40 354
-81 488 -163 875 -550 1039 -1040 55 -162 70 -268 71 -469 0 -147 -4 -191 -23
-278 -73 -324 -195 -547 -431 -782 -179 -178 -336 -283 -564 -374 -94 -38
-306 -94 -372 -98 l-40 -3 -3 41 -3 42 68 12 c94 16 300 84 410 135 360 168
652 479 782 833 160 434 100 890 -167 1287 -199 295 -482 508 -830 624 -125
42 -353 83 -321 58 2 -2 48 -11 101 -20 207 -36 426 -124 606 -243 142 -94
314 -262 414 -404 302 -428 352 -950 134 -1406 -153 -319 -404 -563 -738 -718
-142 -66 -367 -135 -440 -136 -26 0 -28 3 -28 39 0 39 0 39 53 51 90 22 256
80 344 120 161 75 377 216 479 313 170 160 268 333 336 587 26 99 31 137 35
280 4 124 1 188 -11 256 -89 516 -481 962 -986 1122 -96 31 -244 63 -284 61
-20 0 -20 -1 -1 -8 11 -5 61 -16 110 -25 501 -94 920 -458 1093 -946 51 -146
66 -238 66 -410 1 -173 -14 -265 -65 -421 -65 -195 -171 -364 -318 -502 -69
-64 -202 -157 -226 -157 -3 0 -21 -11 -38 -24 -95 -71 -322 -172 -477 -212
-125 -32 -122 -32 -118 17 l3 41 91 23 c304 77 576 262 733 500 265 402 300
839 101 1235 -129 257 -346 466 -607 586 -91 42 -223 82 -299 92 l-59 7 -6 40
c-4 22 -4 43 -1 46 11 10 160 -20 254 -51 218 -73 388 -178 548 -339 252 -254
390 -572 390 -896 -1 -351 -131 -649 -421 -960 -80 -85 -81 -87 -24 -38 208
179 379 470 436 744 26 124 30 342 10 459 -31 171 -133 403 -244 550 -83 109
-230 251 -331 319 -159 108 -376 195 -553 224 l-73 12 0 42 c0 23 -4 44 -9 47
-4 3 -11 -95 -15 -217 -4 -122 -13 -402 -21 -622 -8 -220 -24 -665 -35 -990
-30 -899 -55 -1324 -78 -1347 -18 -18 -47 -4 -53 27 -4 17 -8 71 -9 120 l-3
90 -8 -95 c-10 -109 -21 -140 -48 -140 -49 0 -60 148 -69 895 l-6 590 -12
-280 c-7 -154 -13 -381 -14 -505 -1 -270 -15 -608 -25 -632 -10 -25 -42 -22
-57 5 -10 17 -13 240 -13 1104 1 595 0 1081 -1 1080 -1 -1 -7 -171 -13 -377
-34 -1121 -42 -1318 -67 -1559 -15 -149 -32 -211 -58 -211 -26 0 -37 37 -46
158 -5 64 -10 668 -10 1342 0 1211 -6 1682 -21 1645 -4 -11 -8 -398 -8 -860
-1 -709 -4 -892 -21 -1170 -10 -181 -24 -445 -30 -585 -15 -362 -30 -435 -88
-428 -55 6 -59 51 -92 1078 -11 344 -25 807 -31 1030 -6 223 -15 411 -19 419
-14 26 -20 -246 -30 -1321 -5 -624 -13 -1075 -18 -1085 -9 -14 -11 -13 -23 8
-30 52 -21 1749 11 2059 32 315 34 364 20 551 -17 220 -22 198 -39 -171 -20
-427 -47 -350 -45 130 1 278 12 429 35 457 6 7 20 13 30 13 34 0 42 -34 59
-249 6 -68 14 -129 19 -135 34 -43 46 -227 76 -1206 14 -448 30 -936 35 -1085
5 -148 10 -283 11 -300 l1 -30 8 29 c8 26 15 139 40 661 6 110 14 621 20 1135
12 1148 22 1330 77 1338 30 4 42 -22 53 -115 24 -195 32 -623 31 -1747 -1
-649 1 -1177 4 -1174 3 3 14 304 25 669 51 1754 78 2294 120 2403 12 31 30 42
42 25 9 -14 3 -1602 -7 -1859 -3 -78 -2 -104 4 -80 5 19 14 370 20 780 11 697
23 1098 37 1163 3 15 12 27 19 27 40 0 40 15 45 -1577 3 -842 8 -1535 12
-1539 5 -4 7 609 6 1362 -2 1619 4 1773 68 1782 13 2 25 -4 30 -15 5 -10 11
-690 14 -1518 5 -1491 6 -1526 31 -765 5 173 16 493 24 710 8 217 22 649 31
960 9 311 20 589 26 618 7 41 13 52 28 52 22 0 31 -12 39 -54 l7 -31 124 -18
c231 -33 424 -93 613 -189 431 -220 757 -592 917 -1044 38 -107 77 -262 86
-337 7 -59 17 -66 29 -20 15 63 56 131 84 143 64 26 87 -11 150 -247 46 -171
69 -230 99 -256 47 -42 75 -8 137 162 25 68 52 135 60 148 34 52 100 55 132 6
10 -15 32 -67 48 -117 51 -153 102 -164 164 -35 29 60 43 77 73 92 68 33 129
-4 182 -110 15 -29 30 -53 34 -53 5 0 19 12 33 26 51 54 95 69 207 68 l102 -1
0 1678 0 1679 -3515 0 -3515 0 0 -1665z m3842 -579 c167 -32 348 -113 487
-216 96 -72 233 -214 294 -307 68 -102 141 -262 174 -378 25 -92 28 -114 28
-270 0 -196 -15 -287 -72 -430 -121 -304 -319 -528 -591 -668 -93 -48 -262
-109 -339 -122 l-43 -7 0 46 c0 33 4 46 14 46 28 0 193 52 269 85 246 107 486
349 588 594 74 177 107 419 80 587 -53 339 -252 637 -541 811 -116 70 -273
128 -402 148 -37 6 -38 7 -38 50 0 25 4 45 9 45 5 0 43 -6 83 -14z m-1281
-749 c4 -348 13 -814 19 -1037 14 -460 8 -662 -20 -645 -14 9 -21 105 -35 527
-25 730 -37 1470 -27 1618 11 146 24 202 45 181 8 -8 13 -176 18 -644z m1372
616 c366 -114 645 -399 752 -769 61 -210 47 -475 -35 -684 -104 -264 -323
-495 -582 -615 -81 -37 -235 -85 -275 -85 -22 0 -24 3 -21 41 l3 41 85 25
c103 29 245 95 331 153 82 56 213 187 269 269 98 145 154 305 169 482 18 214
-23 403 -129 584 -147 249 -417 449 -672 496 -65 12 -66 13 -72 47 -3 19 -3
39 0 44 8 12 85 0 177 -29z m-13 -104 c256 -84 477 -281 601 -534 75 -153 92
-230 93 -410 0 -188 -21 -282 -98 -440 -112 -226 -290 -394 -527 -495 -67 -28
-209 -73 -215 -67 -1 1 -4 20 -5 41 -4 45 -6 44 111 81 162 50 337 169 447
305 66 82 147 241 175 345 17 64 21 109 21 225 0 129 -3 155 -26 233 -49 159
-126 288 -241 402 -124 123 -299 222 -437 248 l-59 11 0 46 0 47 48 -8 c26 -5
76 -19 112 -30z m-44 -100 c280 -86 512 -322 604 -614 31 -99 39 -291 16 -406
-66 -324 -309 -590 -634 -693 -46 -14 -88 -24 -93 -21 -17 11 -10 75 9 81 263
82 487 275 583 502 37 90 59 203 59 307 0 217 -87 404 -268 577 -92 88 -191
147 -309 184 l-83 26 0 39 c0 34 3 39 24 39 13 0 55 -10 92 -21z m12 -115
c129 -48 269 -158 361 -283 107 -146 154 -283 153 -451 -2 -243 -106 -455
-302 -612 -88 -72 -242 -155 -303 -165 l-37 -6 0 75 c0 42 -3 89 -6 105 -6 29
-5 30 81 58 143 46 267 139 341 256 104 164 113 399 21 574 -39 74 -163 200
-234 238 -28 15 -84 36 -124 46 l-72 18 -3 92 -3 92 32 -6 c18 -4 60 -18 95
-31z m31 -270 c244 -120 348 -424 230 -670 -35 -75 -119 -169 -190 -215 -50
-32 -166 -79 -195 -79 -27 0 -5 18 30 24 106 20 260 135 321 240 113 194 75
450 -90 605 -69 64 -124 95 -223 122 l-67 19 55 -5 c36 -3 81 -17 129 -41z
m-101 -420 c40 -28 24 -94 -23 -94 -29 0 -45 19 -45 51 0 26 22 59 38 59 4 0
18 -7 30 -16z"/>
</g>
</svg>
