<svg xmlns="http://www.w3.org/2000/svg" width="682.667" height="682.667" preserveAspectRatio="xMidYMid meet" version="1.0" viewBox="0 0 512 512"><g fill="#000" stroke="none"><path d="M2367 4894 c-448 -69 -844 -364 -1013 -753 l-33 -76 -58 -7 c-32 -3 -101 -11 -153 -17 -346 -38 -691 -253 -892 -556 -65 -97 -84 -135 -135 -260 -79 -199 -102 -461 -59 -687 102 -531 535 -946 1073 -1027 44 -7 257 -11 552 -11 l481 0 0 105 0 105 -462 0 c-503 0 -572 5 -724 56 -470 157 -770 618 -723 1110 37 392 291 736 653 884 143 58 218 73 420 79 l179 6 32 95 c56 167 129 289 242 406 339 352 862 448 1288 236 202 -100 377 -274 477 -477 71 -143 103 -271 114 -462 l7 -121 266 -5 c238 -3 274 -6 341 -26 276 -81 489 -273 600 -538 40 -95 60 -205 67 -360 l6 -133 104 0 103 0 0 113 c0 349 -114 625 -352 853 -144 138 -309 229 -503 278 -71 18 -249 36 -357 36 l-78 0 0 30 c0 86 -50 266 -111 397 -92 201 -271 408 -457 530 -264 173 -589 245 -895 197z" transform="translate(0.000000,512.000000) scale(0.100000,-0.100000)"/><path d="M3515 2731 l-840 -227 -3 -738 -2 -738 -23 7 c-186 59 -376 38 -557 -62 -87 -48 -199 -161 -234 -236 -73 -155 -46 -302 74 -411 87 -79 198 -111 355 -103 281 14 533 194 584 418 7 27 11 263 11 604 l0 560 628 169 c345 93 633 171 640 173 9 4 12 -69 12 -345 l0 -351 -35 15 c-63 26 -176 37 -263 25 -234 -31 -431 -160 -518 -340 -24 -49 -28 -69 -28 -151 -1 -82 2 -102 24 -143 53 -105 181 -187 319 -206 323 -43 669 174 708 445 10 72 6 1864 -5 1863 -4 -1 -385 -103 -847 -228z m645 -205 c0 -139 -2 -155 -17 -160 -24 -7 -1200 -323 -1235 -331 l-28 -7 0 155 0 155 98 26 c472 129 1159 315 1170 315 9 1 12 -36 12 -153z m-107 -1262 c59 -20 107 -73 107 -117 -1 -76 -84 -178 -189 -231 -185 -94 -424 -62 -447 61 -19 103 120 242 289 288 71 19 183 19 240 -1z m-1478 -434 c60 -26 87 -60 87 -112 1 -23 -7 -58 -16 -77 -63 -121 -273 -224 -428 -207 -116 12 -188 63 -188 134 0 185 344 351 545 262z" transform="translate(0.000000,512.000000) scale(0.100000,-0.100000)"/></g></svg>