<svg xmlns="http://www.w3.org/2000/svg" width="816" height="1056" preserveAspectRatio="xMidYMid meet" version="1.0" viewBox="0 158.4 612 475.2"><g fill="#000" stroke="none"><path d="M3035 5268 c-16 -65 -22 -386 -24 -1172 -1 -479 -4 -872 -6 -875 -3 -2 -5 458 -5 1022 0 1010 0 1027 -19 1027 -11 0 -22 -3 -24 -7 -3 -5 -8 -111 -11 -238 -4 -126 -8 -261 -11 -300 -2 -38 -7 -221 -11 -405 -3 -184 -8 -337 -11 -340 -2 -2 -1 229 4 515 11 729 10 755 -21 755 -21 0 -38 -119 -51 -370 -2 -52 -7 -138 -10 -190 -2 -52 -7 -174 -10 -270 -3 -96 -7 -211 -10 -255 -2 -44 -7 -161 -10 -260 -3 -99 -7 -223 -10 -275 -3 -52 -7 -147 -10 -210 -9 -197 -17 -335 -20 -338 -2 -2 -3 461 -2 1030 2 1090 2 1088 -42 1088 -45 0 -56 -140 -76 -980 -11 -451 -22 -803 -30 -945 -12 -221 -18 -286 -25 -278 -15 15 -28 364 -35 923 -10 830 -21 1095 -45 1140 -13 25 -36 26 -48 3 -23 -43 -34 -229 -47 -803 -16 -696 -30 -990 -52 -1125 l-7 -40 -7 40 c-18 101 -28 408 -30 1005 -2 489 -10 695 -29 730 -17 31 -47 25 -59 -12 -18 -57 -42 -339 -56 -668 -3 -74 -8 -169 -10 -210 -2 -41 -7 -131 -10 -200 -3 -69 -8 -145 -10 -170 -2 -25 -7 -82 -11 -128 -3 -46 -8 -81 -11 -79 -9 9 -30 289 -48 622 -18 331 -31 449 -50 465 -48 40 -81 -84 -135 -515 -33 -259 -50 -369 -56 -362 -3 2 -14 74 -24 158 -43 330 -52 396 -67 454 -17 69 -28 85 -55 85 -29 0 -53 -65 -91 -255 -38 -185 -53 -233 -67 -219 -5 5 -23 61 -40 124 -54 201 -92 257 -157 234 -35 -12 -59 -47 -83 -119 -32 -94 -52 -136 -64 -132 -6 2 -21 28 -33 58 -39 100 -45 109 -71 123 -21 11 -34 11 -61 2 -28 -9 -40 -22 -63 -68 -23 -47 -33 -58 -53 -58 -19 0 -30 10 -46 43 -45 89 -73 97 -141 41 l-43 -37 -116 6 c-64 4 -124 10 -133 13 -12 5 -16 0 -16 -19 0 -22 5 -25 61 -31 34 -3 99 -6 145 -6 78 0 85 2 127 34 l44 34 23 -42 c32 -58 48 -74 81 -81 41 -9 73 14 104 76 14 27 33 53 41 56 22 8 49 -22 64 -70 21 -72 48 -116 76 -123 39 -10 68 26 100 123 29 89 55 133 80 133 25 0 51 -58 89 -196 39 -138 61 -177 98 -172 35 5 54 55 92 237 43 213 45 221 55 221 12 0 27 -93 60 -358 38 -307 46 -349 70 -362 44 -24 65 58 116 457 44 353 73 491 75 367 0 -27 2 -56 3 -64 2 -8 6 -78 10 -155 4 -77 9 -158 11 -180 2 -22 7 -92 10 -155 14 -278 38 -461 62 -486 56 -55 73 60 103 691 5 116 12 262 15 325 3 63 8 140 10 170 2 30 7 98 11 150 3 52 9 98 13 102 9 10 8 54 15 -602 9 -926 19 -1073 69 -1104 68 -41 91 182 112 1064 12 511 23 821 31 829 2 2 5 -25 5 -60 1 -35 3 -75 4 -89 2 -24 9 -429 20 -1090 8 -485 22 -735 45 -794 13 -34 47 -35 60 -1 13 33 27 164 35 305 3 63 8 153 10 200 2 47 7 184 10 305 3 121 7 294 10 385 3 91 8 278 11 415 4 138 8 261 9 275 1 14 3 65 4 114 0 49 4 86 9 82 4 -4 7 -491 7 -1081 0 -973 2 -1076 16 -1090 14 -15 18 -15 31 -1 22 21 39 193 53 531 3 77 7 172 10 210 2 39 7 162 11 275 17 503 20 458 16 -210 -3 -393 -2 -745 2 -782 6 -57 11 -68 26 -68 10 0 21 3 23 8 8 12 16 159 23 397 7 279 9 313 15 319 2 3 5 -106 7 -242 3 -372 13 -516 36 -525 24 -9 38 10 46 64 l8 54 1 -46 c0 -25 8 -54 16 -65 15 -19 15 -19 30 0 8 11 15 31 16 45 0 14 2 33 3 41 7 36 36 658 51 1080 13 380 16 460 20 550 3 52 8 181 11 285 3 105 8 192 10 194 2 2 4 -117 4 -266 l0 -269 61 -12 c202 -37 334 -216 308 -418 -20 -160 -160 -302 -317 -321 l-52 -6 0 -443 0 -444 48 0 c86 0 242 29 350 65 188 63 347 161 488 300 109 108 179 206 246 340 64 131 91 222 128 440 17 99 40 215 52 258 26 99 35 92 78 -62 17 -62 38 -130 46 -150 49 -117 133 -105 184 27 12 31 29 77 39 102 9 25 23 45 30 45 8 0 22 -23 31 -51 25 -73 47 -112 75 -130 44 -29 91 0 131 79 29 57 57 62 82 16 29 -53 63 -89 83 -89 11 0 38 15 61 33 l40 32 112 -2 c61 -1 121 -5 132 -7 24 -6 42 20 26 36 -11 11 -240 23 -275 14 -15 -3 -42 -20 -62 -37 l-35 -31 -17 32 c-46 84 -94 114 -138 86 -12 -8 -37 -40 -54 -70 -45 -81 -73 -77 -105 17 -37 109 -68 141 -111 113 -29 -19 -45 -48 -75 -139 -25 -76 -59 -125 -79 -112 -20 12 -47 80 -81 204 -17 63 -40 127 -51 142 -37 53 -76 31 -102 -56 -17 -56 -18 -54 -41 66 -94 496 -487 891 -989 994 -44 8 -127 18 -187 22 l-107 6 -7 -229 c-3 -126 -8 -303 -11 -394 -10 -350 -16 -539 -20 -650 -3 -63 -8 -198 -11 -300 -17 -494 -21 -410 -22 536 -1 562 -4 1029 -8 1038 -9 24 -43 20 -49 -6z m1160 -638 c131 -201 186 -400 179 -645 -6 -197 -34 -331 -100 -481 -42 -95 -128 -219 -214 -307 l-81 -82 56 90 c87 139 175 335 175 388 0 6 -23 -36 -50 -93 -59 -120 -125 -223 -169 -264 -17 -17 -31 -27 -31 -23 0 4 25 58 56 120 62 123 61 125 -11 22 -58 -83 -125 -169 -125 -161 0 4 27 61 60 129 l61 122 -60 -65 c-33 -36 -60 -62 -61 -58 0 3 18 46 41 94 l40 88 -76 -79 c-82 -86 -81 -79 10 65 68 108 127 211 122 216 -2 2 -41 -44 -86 -102 -44 -59 -81 -104 -81 -102 0 3 18 44 41 92 22 48 39 90 36 92 -2 2 -40 -38 -85 -89 -45 -52 -88 -100 -97 -107 -17 -14 -14 -4 54 159 17 41 31 76 31 80 0 3 -18 -24 -39 -61 -37 -63 -127 -188 -136 -188 -5 0 20 61 57 135 l29 60 -48 -55 c-26 -30 -63 -71 -81 -90 l-33 -35 39 66 c79 131 80 140 13 69 l-62 -65 37 75 36 75 -52 -50 c-58 -55 -58 -56 17 65 l54 85 -47 -50 -46 -50 22 45 c12 24 31 69 41 99 34 98 20 262 -32 363 -11 21 -18 38 -16 38 2 0 21 -25 42 -55 20 -30 39 -55 41 -55 2 0 -28 64 -67 143 -80 160 -79 162 10 25 35 -54 65 -98 67 -98 1 0 -8 32 -21 70 -13 39 -22 70 -20 70 2 0 30 -43 61 -95 31 -53 58 -94 60 -92 3 2 -9 36 -25 75 -17 40 -27 72 -22 72 4 0 22 -16 41 -35 18 -19 35 -33 37 -31 2 1 -12 45 -32 96 -19 52 -33 96 -31 98 2 2 29 -31 60 -74 31 -42 56 -74 56 -72 0 3 -11 33 -26 67 -14 35 -23 65 -21 67 11 12 89 -127 136 -241 38 -92 54 -115 45 -65 -14 80 -46 184 -83 269 -21 50 -37 91 -36 91 2 0 31 -47 65 -105 33 -58 63 -105 65 -105 5 0 -40 129 -86 248 -16 42 -27 77 -26 79 2 1 34 -40 72 -92 37 -52 70 -93 72 -92 2 2 -28 75 -67 162 -38 86 -70 162 -70 169 1 27 76 -78 120 -169 45 -93 119 -297 135 -373 4 -18 9 -31 12 -29 16 16 -82 320 -154 477 -19 41 -30 71 -25 65 5 -5 64 -107 131 -225 66 -118 121 -212 121 -208 0 3 -40 101 -90 219 -49 117 -88 214 -87 215 2 2 39 -49 82 -112 44 -64 86 -123 92 -132 7 -10 -19 49 -57 131 -39 81 -70 150 -70 153 0 11 60 -67 105 -136z m-1278 -707 c-3 -10 -5 -4 -5 12 0 17 2 24 5 18 2 -7 2 -21 0 -30z m40 -405 c-3 -8 -6 -5 -6 6 -1 11 2 17 5 13 3 -3 4 -12 1 -19z" transform="translate(0.000000,792.000000) scale(0.100000,-0.100000)"/><path d="M3240 4032 c-40 -32 -4 -85 41 -62 25 14 25 56 0 70 -15 7 -24 5 -41 -8z" transform="translate(0.000000,792.000000) scale(0.100000,-0.100000)"/></g></svg>